<?xml version="1.0" encoding="UTF-8"?>
<svg width="28px" height="28px" viewBox="0 0 28 28" version="1.1" xmlns="http://www.w3.org/2000/svg" xmlns:xlink="http://www.w3.org/1999/xlink">
    <!-- Generator: Sketch 51.2 (57519) - http://www.bohemiancoding.com/sketch -->
    <title>监控-未选中</title>
    <desc>Created with Sketch.</desc>
    <defs></defs>
    <g id="Page-1" stroke="none" stroke-width="1" fill="none" fill-rule="evenodd">
        <g id="1-1-首页" transform="translate(-36.000000, -180.000000)" fill-rule="nonzero">
            <g id="Group-34" transform="translate(10.000000, 165.000000)">
                <g id="监控" transform="translate(26.000000, 15.000000)">
                    <g id="Group-3">
                        <g id="Group-5" transform="translate(0.000000, 2.000000)">
                            <rect id="Rectangle-26" stroke="#DBECFF" stroke-width="2" x="1" y="1" width="26" height="22" rx="4"></rect>
                            <g id="监控" opacity="0.75999999" transform="translate(5.000000, 6.000000)" fill="#DBECFF">
                                <g id="Group-6">
                                    <polygon id="Shape" points="0 2 2 2 2 12 6.6613381e-16 12 6.6613381e-16 2"></polygon>
                                    <polygon id="Shape" points="10.6666667 0 12.6666667 0 12.6666667 12 10.6666667 12"></polygon>
                                    <polygon id="Shape" points="5.33333333 6 7.33333333 6 7.33333333 12 5.33333333 12 5.33333333 6"></polygon>
                                    <polygon id="Shape" points="16 5 18 5 18 12 16 12 16 5"></polygon>
                                </g>
                            </g>
                        </g>
                        <rect id="Rectangle-33" fill="#333333" opacity="0" x="0" y="0" width="28" height="28"></rect>
                    </g>
                </g>
            </g>
        </g>
    </g>
</svg>