
<?xml version="1.0" encoding="UTF-8"?>
<svg width="28px" height="28px" viewBox="0 0 28 28" version="1.1" xmlns="http://www.w3.org/2000/svg" xmlns:xlink="http://www.w3.org/1999/xlink">
    <!-- Generator: Sketch 51.2 (57519) - http://www.bohemiancoding.com/sketch -->
    <title>我的分享-未选中</title>
    <desc>Created with Sketch.</desc>
    <defs></defs>
    <g id="Page-1" stroke="none" stroke-width="1" fill="none" fill-rule="evenodd">
        <g id="1-1-首页" transform="translate(-36.000000, -420.000000)" fill-rule="nonzero">
            <g id="Group-39" transform="translate(10.000000, 405.000000)">
                <g id="我的分享-未选中" transform="translate(26.000000, 15.000000)">
                    <path d="M25,12 C25,15.6666667 25,19.3333333 25,23 C25,24.1045695 24.1045695,25 23,25 L5,25 C3.8954305,25 3,24.1045695 3,23 L3,5 C3,3.8954305 3.8954305,3 5,3 C8.66666667,3 12.3333333,3 16,3" id="Rectangle-11" stroke="#DBECFF" stroke-width="2"></path>
                    <g id="Group-31">
                        <rect id="Rectangle-7" fill="#DBECFF" transform="translate(15.501854, 12.501854) rotate(-315.000000) translate(-15.501854, -12.501854) " x="14.5018542" y="5.43078644" width="2" height="14.1421356"></rect>
                        <path d="M24.9935635,3.06891185 L25.99713,3.06891185 L25.9979394,3.06891185 L25.99793,2.06891185 L26.9935635,2.06891185 L26.9935635,2.01929488 C26.5832714,2.01931772 26.2571491,2.01933588 25.9979296,2.01935476 L25.9979206,1.06891185 L25.9935635,1.06891185 L25.9935635,2.01935508 C24.9935635,2.01942815 24.9935635,2.01951241 24.9935635,2.01992084 L24.9935635,3.06891185 Z M24.9935635,6.60102229 L24.9935635,9 L26.6974906,8.28972781 L24.9935635,6.60102229 Z M21.4296153,3.06891185 L19.7039271,1.35863966 L19,3.06891185 L21.4296153,3.06891185 Z" id="Rectangle-70" stroke="#DBECFF" stroke-width="2"></path>
                        <rect id="Rectangle-71" fill="#FFFFFF" opacity="0" x="0" y="0" width="28" height="28"></rect>
                    </g>
                </g>
            </g>
        </g>
    </g>
</svg>