<?xml version="1.0" encoding="UTF-8"?>
<svg width="20px" height="20px" viewBox="0 0 20 20" version="1.1" xmlns="http://www.w3.org/2000/svg" xmlns:xlink="http://www.w3.org/1999/xlink">
    <!-- Generator: Sketch 51.2 (57519) - http://www.bohemiancoding.com/sketch -->
    <title>搜索</title>
    <desc>Created with Sketch.</desc>
    <defs>
        <filter x="-0.9%" y="-15.5%" width="101.8%" height="136.6%" filterUnits="objectBoundingBox" id="filter-1">
            <feOffset dx="0" dy="2" in="SourceAlpha" result="shadowOffsetOuter1"></feOffset>
            <feGaussianBlur stdDeviation="4" in="shadowOffsetOuter1" result="shadowBlurOuter1"></feGaussianBlur>
            <feColorMatrix values="0 0 0 0 0.537254902   0 0 0 0 0.592156863   0 0 0 0 0.721568627  0 0 0 0.1 0" type="matrix" in="shadowBlurOuter1" result="shadowMatrixOuter1"></feColorMatrix>
            <feMerge>
                <feMergeNode in="shadowMatrixOuter1"></feMergeNode>
                <feMergeNode in="SourceGraphic"></feMergeNode>
            </feMerge>
        </filter>
    </defs>
    <g id="Page-1" stroke="none" stroke-width="1" fill="none" fill-rule="evenodd">
        <g id="1-4-首页-上传" transform="translate(-952.000000, -25.000000)" fill="#666666" fill-rule="nonzero">
            <g id="Group-49" filter="url(#filter-1)" transform="translate(100.000000, 0.000000)">
                <g id="Group-22">
                    <g id="Group-21" transform="translate(842.000000, 13.000000)">
                        <g id="搜索" transform="translate(10.000000, 12.000000)">
                            <path d="M18.5351562,17.5507812 L14.5175781,13.5351563 C15.59375,12.2363281 16.2402344,10.5703125 16.2402344,8.75195312 C16.2402344,4.609375 12.8828125,1.25195312 8.74023437,1.25195312 C4.59765625,1.25195312 1.24023438,4.609375 1.24023438,8.75195312 C1.24023438,12.8945313 4.59765625,16.2519531 8.74023437,16.2519531 C10.5585937,16.2519531 12.2246094,15.6054688 13.5234375,14.5292969 L17.5410156,18.546875 C17.6777344,18.6835938 17.8574219,18.7519531 18.0390625,18.7519531 C18.2207031,18.7519531 18.3984375,18.6835938 18.5371094,18.546875 C18.8085937,18.2714844 18.8085937,17.8261719 18.5351562,17.5507812 Z M11.1113281,14.3671875 C10.3613281,14.6855469 9.56445312,14.8457031 8.74023438,14.8457031 C7.91601562,14.8457031 7.11914062,14.6855469 6.36914062,14.3671875 C5.64453125,14.0605469 4.9921875,13.6210937 4.43164062,13.0605469 C3.87109375,12.5 3.43164062,11.8476562 3.125,11.1230469 C2.80664062,10.3730469 2.64648438,9.57617187 2.64648438,8.75195312 C2.64648438,7.92773437 2.80664062,7.13085938 3.125,6.38085938 C3.43164062,5.65625 3.87109375,5.00390625 4.43164062,4.44335938 C4.9921875,3.8828125 5.64453125,3.44335938 6.36914062,3.13671875 C7.11914062,2.81835938 7.91601562,2.65820312 8.74023438,2.65820312 C9.56445312,2.65820312 10.3613281,2.81835938 11.1113281,3.13671875 C11.8359375,3.44335938 12.4882812,3.8828125 13.0488281,4.44335938 C13.609375,5.00390625 14.0488281,5.65625 14.3554688,6.38085938 C14.6738281,7.13085938 14.8339844,7.92773437 14.8339844,8.75195312 C14.8339844,9.57617187 14.6738281,10.3730469 14.3554688,11.1230469 C14.0488281,11.8476562 13.609375,12.5 13.0488281,13.0605469 C12.4882813,13.6210938 11.8378906,14.0605469 11.1113281,14.3671875 Z" id="Shape"></path>
                        </g>
                    </g>
                </g>
            </g>
        </g>
    </g>
</svg>