<?xml version="1.0" encoding="UTF-8"?>
<svg width="10px" height="10px" viewBox="0 0 10 10" version="1.1" xmlns="http://www.w3.org/2000/svg" xmlns:xlink="http://www.w3.org/1999/xlink">
    <!-- Generator: Sketch 51.2 (57519) - http://www.bohemiancoding.com/sketch -->
    <title>排序-降序</title>
    <desc>Created with Sketch.</desc>
    <defs></defs>
    <g id="Page-1" stroke="none" stroke-width="1" fill="none" fill-rule="evenodd">
        <g id="1-1-首页" transform="translate(-1382.000000, -406.000000)">
            <g id="排序-降序" transform="translate(1382.000000, 406.000000)">
                <rect id="Rectangle-24" fill="#D8D8D8" opacity="0" x="0" y="0" width="10" height="10"></rect>
                <g id="Group-16" transform="translate(1.500000, 0.000000)" fill-rule="nonzero">
                    <path d="M0.429709106,9.4733288 L3.44586892,5.83498302 C3.57169736,5.69438859 3.79208327,5.69438859 3.91791171,5.83498302 L6.91918058,9.4733288 C7.10085005,9.67715353 6.95640793,10 6.68315919,10 L0.664985952,10 C0.392481757,10 0.247295096,9.67715353 0.429709106,9.4733288 Z" id="Shape" fill="#1890FF" transform="translate(3.674269, 7.864769) rotate(-180.000000) translate(-3.674269, -7.864769) "></path>
                    <path d="M0.429709106,4.4733288 L3.44586892,0.834983016 C3.57169736,0.694388587 3.79208327,0.694388587 3.91791171,0.834983016 L6.91918058,4.4733288 C7.10085005,4.67715353 6.95640793,5 6.68315919,5 L0.664985952,5 C0.392481757,5 0.247295096,4.67715353 0.429709106,4.4733288 Z" id="Shape" fill="#B2B7CA" transform="translate(3.674269, 2.864769) scale(1, -1) rotate(180.000000) translate(-3.674269, -2.864769) "></path>
                </g>
            </g>
        </g>
    </g>
</svg>